<?xml version="1.0" encoding="UTF-8"?>
<svg width="16" height="16" viewBox="0 0 24 24" fill="none" xmlns="http://www.w3.org/2000/svg">
  <path d="M12 2C6.477 2 2 6.477 2 12C2 16.237 4.636 19.855 8.356 21.312C8.266 20.521 8.178 19.27 8.356 18.357C8.534 17.444 9.671 13.358 9.671 13.358C9.671 13.358 9.316 12.647 9.316 11.58C9.316 9.91 10.205 8.677 11.322 8.677C12.273 8.677 12.733 9.387 12.733 10.231C12.733 11.181 12.13 12.619 11.822 13.953C11.566 15.07 12.397 15.982 13.495 15.982C15.493 15.982 16.961 13.805 16.961 10.676C16.961 8.108 15.149 6.296 12.043 6.296C8.535 6.296 6.476 8.831 6.476 11.759C6.476 12.71 6.784 13.572 7.199 14.148C7.307 14.275 7.325 14.402 7.289 14.566C7.199 14.948 6.962 15.902 6.926 16.066C6.872 16.284 6.727 16.338 6.494 16.229C5.077 15.574 4.261 13.432 4.261 11.705C4.261 8.271 7.073 4.337 12.367 4.337C16.647 4.337 19.585 7.601 19.585 10.859C19.585 15.247 17.039 17.813 13.781 17.813C12.665 17.813 11.602 17.208 11.205 16.504C11.205 16.504 10.602 18.68 10.477 19.146C10.226 20.114 9.508 21.264 9.005 21.965C9.977 22.239 10.977 22.375 12 22.375C17.523 22.375 22 17.898 22 12.375C22 6.852 17.523 2 12 2Z" fill="white"/>
</svg> 