<svg xmlns="http://www.w3.org/2000/svg" xmlns:xlink="http://www.w3.org/1999/xlink" width="500" zoomAndPan="magnify" viewBox="0 0 375 374.999991" height="500" preserveAspectRatio="xMidYMid meet" version="1.2"><defs><clipPath id="5628ff236e"><path d="M 135 142 L 197 142 L 197 206.605469 L 135 206.605469 Z M 135 142 "/></clipPath></defs><g id="ddb11ea468"><g style="fill:#23326a;fill-opacity:1;"><g transform="translate(65.662515, 235.67957)"><path style="stroke:none" d="M 33.203125 0.484375 C 29.898438 1.347656 26.515625 1.617188 23.046875 1.296875 C 19.585938 0.972656 16.34375 0.0390625 13.3125 -1.5 C 10.28125 -3.039062 7.765625 -5.140625 5.765625 -7.796875 C 4.035156 -10.171875 2.695312 -12.914062 1.75 -16.03125 C 0.800781 -19.144531 0.242188 -22.429688 0.078125 -25.890625 C -0.078125 -29.359375 0.0820312 -32.769531 0.5625 -36.125 C 1.488281 -41.757812 3.410156 -46.523438 6.328125 -50.421875 C 9.253906 -54.316406 12.910156 -57.019531 17.296875 -58.53125 C 21.679688 -60.050781 26.523438 -60.050781 31.828125 -58.53125 C 35.347656 -57.613281 38.09375 -56.257812 40.0625 -54.46875 C 42.039062 -52.6875 43.460938 -50.6875 44.328125 -48.46875 C 45.191406 -46.25 45.703125 -44.003906 45.859375 -41.734375 C 46.023438 -39.460938 46.054688 -37.378906 45.953125 -35.484375 C 45.898438 -33.859375 44.925781 -32.910156 43.03125 -32.640625 L 31.5 -32.3125 C 30.632812 -32.207031 29.875 -32.4375 29.21875 -33 C 28.570312 -33.570312 28.222656 -34.289062 28.171875 -35.15625 C 28.171875 -35.476562 28.128906 -36.054688 28.046875 -36.890625 C 27.960938 -37.734375 27.785156 -38.585938 27.515625 -39.453125 C 27.242188 -40.316406 26.8125 -40.914062 26.21875 -41.25 C 24.488281 -42 23.175781 -41.847656 22.28125 -40.796875 C 21.394531 -39.742188 20.785156 -38.078125 20.453125 -35.796875 C 20.128906 -33.523438 19.96875 -30.929688 19.96875 -28.015625 L 19.96875 -27.609375 C 20.019531 -23.328125 20.664062 -20.1875 21.90625 -18.1875 C 23.15625 -16.1875 25.054688 -15.726562 27.609375 -16.8125 C 28.203125 -17.132812 28.617188 -17.710938 28.859375 -18.546875 C 29.109375 -19.390625 29.269531 -20.242188 29.34375 -21.109375 C 29.425781 -21.972656 29.46875 -22.59375 29.46875 -22.96875 C 29.519531 -23.78125 29.867188 -24.472656 30.515625 -25.046875 C 31.171875 -25.617188 31.929688 -25.847656 32.796875 -25.734375 L 44.328125 -25.40625 C 46.273438 -25.132812 47.273438 -24.160156 47.328125 -22.484375 C 47.441406 -20.648438 47.398438 -18.609375 47.203125 -16.359375 C 47.015625 -14.109375 46.488281 -11.875 45.625 -9.65625 C 44.757812 -7.4375 43.351562 -5.429688 41.40625 -3.640625 C 39.457031 -1.859375 36.722656 -0.484375 33.203125 0.484375 Z M 33.203125 0.484375 "/></g></g><g style="fill:#23326a;fill-opacity:1;"><g transform="translate(116.323381, 235.67957)"><path style="stroke:none" d="M 2.84375 0 C 2.082031 0 1.429688 -0.351562 0.890625 -1.0625 C 0.296875 -1.757812 0 -2.488281 0 -3.25 L 0.15625 -55.046875 C 0.15625 -56.078125 0.425781 -56.863281 0.96875 -57.40625 C 1.570312 -58 2.25 -58.296875 3 -58.296875 L 17.53125 -58.21875 C 18.238281 -58.21875 18.941406 -57.914062 19.640625 -57.3125 C 20.242188 -56.613281 20.515625 -55.800781 20.453125 -54.875 L 20.140625 -34.09375 L 27.203125 -34.09375 L 27.28125 -55.203125 C 27.28125 -56.179688 27.550781 -56.941406 28.09375 -57.484375 C 28.6875 -58.078125 29.363281 -58.375 30.125 -58.375 L 44.65625 -58.296875 C 45.351562 -58.296875 46.054688 -58 46.765625 -57.40625 C 47.359375 -56.695312 47.628906 -55.910156 47.578125 -55.046875 L 46.6875 -4.140625 C 46.6875 -3.273438 46.414062 -2.546875 45.875 -1.953125 C 45.332031 -1.296875 44.628906 -0.96875 43.765625 -0.96875 L 29.953125 -0.96875 C 29.203125 -0.96875 28.554688 -1.320312 28.015625 -2.03125 C 27.410156 -2.726562 27.109375 -3.429688 27.109375 -4.140625 L 27.203125 -19.15625 L 19.8125 -19.15625 L 19.5625 -3.25 C 19.5625 -2.332031 19.289062 -1.570312 18.75 -0.96875 C 18.207031 -0.320312 17.503906 0 16.640625 0 Z M 2.84375 0 "/></g></g><g style="fill:#23326a;fill-opacity:1;"><g transform="translate(167.146631, 235.67957)"><path style="stroke:none" d="M 16.078125 -0.078125 C 12.117188 -1.378906 9.003906 -3.015625 6.734375 -4.984375 C 4.460938 -6.960938 2.8125 -9.628906 1.78125 -12.984375 C 0.757812 -16.347656 0.164062 -20.679688 0 -25.984375 C 0.164062 -31.285156 0.773438 -36.03125 1.828125 -40.21875 C 2.878906 -44.414062 4.539062 -47.960938 6.8125 -50.859375 C 9.09375 -53.753906 12.179688 -55.851562 16.078125 -57.15625 C 18.078125 -57.800781 20.347656 -58.164062 22.890625 -58.25 C 25.429688 -58.332031 27.945312 -58.085938 30.4375 -57.515625 C 32.9375 -56.953125 35.101562 -56.046875 36.9375 -54.796875 C 39.644531 -52.960938 41.742188 -50.664062 43.234375 -47.90625 C 44.722656 -45.144531 45.773438 -41.988281 46.390625 -38.4375 C 47.015625 -34.894531 47.410156 -30.957031 47.578125 -26.625 C 47.578125 -21.695312 46.816406 -17.132812 45.296875 -12.9375 C 43.785156 -8.75 41 -5.273438 36.9375 -2.515625 C 35.101562 -1.273438 32.9375 -0.367188 30.4375 0.203125 C 27.945312 0.773438 25.429688 1.019531 22.890625 0.9375 C 20.347656 0.851562 18.078125 0.515625 16.078125 -0.078125 Z M 18.671875 -27.84375 C 18.722656 -24.488281 19.25 -21.945312 20.25 -20.21875 C 21.257812 -18.488281 22.425781 -17.582031 23.75 -17.5 C 25.070312 -17.414062 26.257812 -18.1875 27.3125 -19.8125 C 28.375 -21.4375 28.957031 -23.898438 29.0625 -27.203125 C 29.0625 -31.472656 28.535156 -34.742188 27.484375 -37.015625 C 26.429688 -39.296875 25.210938 -40.503906 23.828125 -40.640625 C 22.453125 -40.773438 21.25 -39.785156 20.21875 -37.671875 C 19.1875 -35.554688 18.671875 -32.28125 18.671875 -27.84375 Z M 18.671875 -27.84375 "/></g></g><g style="fill:#23326a;fill-opacity:1;"><g transform="translate(217.969881, 235.67957)"><path style="stroke:none" d="M 2.921875 0 C 2.160156 0 1.507812 -0.3125 0.96875 -0.9375 C 0.425781 -1.5625 0.15625 -2.304688 0.15625 -3.171875 L 0 -54.484375 C 0 -55.234375 0.28125 -55.945312 0.84375 -56.625 C 1.414062 -57.300781 2.054688 -57.640625 2.765625 -57.640625 L 23.46875 -57.5625 C 27.46875 -57.5625 31.035156 -57.164062 34.171875 -56.375 C 37.316406 -55.59375 39.957031 -54.238281 42.09375 -52.3125 C 44.226562 -50.394531 45.734375 -47.734375 46.609375 -44.328125 C 46.984375 -43.023438 47.238281 -41.359375 47.375 -39.328125 C 47.507812 -37.304688 47.492188 -35.1875 47.328125 -32.96875 C 47.171875 -30.75 46.804688 -28.648438 46.234375 -26.671875 C 45.671875 -24.691406 44.875 -23.082031 43.84375 -21.84375 C 42 -19.5625 39.804688 -17.835938 37.265625 -16.671875 C 34.722656 -15.515625 31.9375 -14.734375 28.90625 -14.328125 C 25.875 -13.921875 22.679688 -13.664062 19.328125 -13.5625 L 19.5625 -3.328125 C 19.675781 -2.410156 19.40625 -1.640625 18.75 -1.015625 C 18.101562 -0.390625 17.425781 -0.078125 16.71875 -0.078125 Z M 18.75 -38.96875 L 19 -30.046875 L 23.140625 -30.046875 C 25.035156 -30.046875 26.492188 -30.488281 27.515625 -31.375 C 28.546875 -32.269531 29.085938 -33.3125 29.140625 -34.5 C 29.203125 -35.695312 28.660156 -36.753906 27.515625 -37.671875 C 26.972656 -38.109375 25.890625 -38.421875 24.265625 -38.609375 C 22.648438 -38.796875 20.8125 -38.914062 18.75 -38.96875 Z M 18.75 -38.96875 "/></g></g><g style="fill:#23326a;fill-opacity:1;"><g transform="translate(268.711929, 235.67957)"><path style="stroke:none" d="M 2.921875 0 C 2.222656 0 1.570312 -0.296875 0.96875 -0.890625 C 0.425781 -1.429688 0.15625 -2.191406 0.15625 -3.171875 L 0 -54.5625 C 0 -55.3125 0.296875 -56.039062 0.890625 -56.75 C 1.484375 -57.394531 2.109375 -57.71875 2.765625 -57.71875 L 34.1875 -57.640625 C 35.101562 -57.640625 35.859375 -57.367188 36.453125 -56.828125 C 37.046875 -56.234375 37.34375 -55.554688 37.34375 -54.796875 L 37.34375 -42.703125 C 37.34375 -42.054688 37.019531 -41.4375 36.375 -40.84375 C 35.78125 -40.351562 35.050781 -40.050781 34.1875 -39.9375 L 18.828125 -39.21875 L 19 -35.15625 L 27.765625 -35.078125 C 28.472656 -35.078125 29.097656 -34.882812 29.640625 -34.5 C 30.171875 -34.125 30.410156 -33.613281 30.359375 -32.96875 L 29.953125 -24.28125 C 29.953125 -23.738281 29.679688 -23.273438 29.140625 -22.890625 C 28.660156 -22.566406 28.066406 -22.351562 27.359375 -22.25 L 19.328125 -21.84375 L 19.484375 -18.59375 L 34.1875 -17.9375 C 35.050781 -17.832031 35.78125 -17.535156 36.375 -17.046875 C 37.019531 -16.503906 37.34375 -15.882812 37.34375 -15.1875 L 37.34375 -3.078125 C 37.34375 -2.328125 37.046875 -1.65625 36.453125 -1.0625 C 35.859375 -0.519531 35.101562 -0.25 34.1875 -0.25 L 12.5 0 C 12.394531 0 12.257812 0 12.09375 0 C 11.9375 0 11.800781 -0.0234375 11.6875 -0.078125 Z M 2.921875 0 "/></g></g><path style=" stroke:none;fill-rule:nonzero;fill:#fdfdfd;fill-opacity:1;" d="M 147.96875 125.695312 C 147.96875 125.695312 148.601562 122.679688 150.300781 120.398438 C 152.585938 117.382812 156.476562 115.050781 160.460938 117.578125 C 165.515625 120.835938 164.007812 125.9375 161.578125 129.292969 C 159.976562 131.480469 157.691406 132.742188 157.691406 132.742188 Z M 147.96875 125.695312 "/><path style=" stroke:none;fill-rule:nonzero;fill:#23326a;fill-opacity:1;" d="M 157.691406 133.324219 C 157.789062 133.324219 157.886719 133.324219 157.980469 133.277344 C 158.078125 133.226562 160.414062 131.917969 162.066406 129.632812 C 163.910156 127.054688 164.738281 124.238281 164.300781 121.953125 C 163.910156 120.007812 162.746094 118.402344 160.800781 117.140625 C 156.476562 114.371094 152.246094 116.996094 149.914062 120.105469 C 148.117188 122.488281 147.484375 125.5 147.484375 125.644531 C 147.433594 125.9375 147.628906 126.230469 147.921875 126.328125 C 148.210938 126.375 148.503906 126.179688 148.601562 125.890625 C 148.601562 125.839844 149.234375 122.972656 150.835938 120.785156 C 152.976562 117.964844 156.574219 115.730469 160.21875 118.113281 C 161.917969 119.183594 162.941406 120.589844 163.230469 122.195312 C 163.621094 124.238281 162.890625 126.714844 161.191406 129.046875 C 159.683594 131.136719 157.496094 132.355469 157.449219 132.355469 C 157.15625 132.5 157.058594 132.839844 157.203125 133.132812 C 157.300781 133.226562 157.496094 133.324219 157.691406 133.324219 Z M 157.691406 133.324219 "/><path style=" stroke:none;fill-rule:nonzero;fill:#fdfdfd;fill-opacity:1;" d="M 157.253906 122.242188 C 157.253906 122.242188 154.675781 123.75 153.703125 126.765625 Z M 157.253906 122.242188 "/><path style=" stroke:none;fill-rule:nonzero;fill:#23326a;fill-opacity:1;" d="M 153.703125 127.296875 C 153.949219 127.296875 154.140625 127.152344 154.238281 126.910156 C 155.113281 124.140625 157.496094 122.679688 157.496094 122.679688 C 157.789062 122.535156 157.835938 122.195312 157.691406 121.902344 C 157.542969 121.660156 157.203125 121.5625 156.914062 121.710938 C 156.816406 121.757812 154.140625 123.363281 153.121094 126.570312 C 153.023438 126.859375 153.171875 127.152344 153.511719 127.25 C 153.609375 127.296875 153.65625 127.296875 153.703125 127.296875 Z M 153.703125 127.296875 "/><path style=" stroke:none;fill-rule:nonzero;fill:#fdfdfd;fill-opacity:1;" d="M 196.429688 182.320312 C 196.429688 182.320312 192.976562 164.382812 185.882812 158.308594 C 178.785156 152.28125 143.59375 142.609375 143.59375 142.609375 L 157.398438 174.542969 C 157.398438 174.542969 142.332031 181.152344 139.707031 187.8125 C 136.644531 195.441406 135.625 196.898438 135.625 200.789062 C 135.625 200.789062 136.789062 205.941406 140.386719 205.941406 C 143.984375 205.941406 147.921875 205.699219 151.273438 202.296875 C 152.683594 200.835938 154.335938 197.386719 154.335938 197.386719 L 164.203125 194.566406 C 164.203125 194.566406 173.488281 192.816406 177.570312 186.207031 C 178.640625 184.507812 178.980469 182.367188 178.980469 182.367188 Z M 196.429688 182.320312 "/><g clip-rule="nonzero" clip-path="url(#5628ff236e)"><path style=" stroke:none;fill-rule:nonzero;fill:#23326a;fill-opacity:1;" d="M 140.339844 206.476562 C 136.351562 206.476562 135.089844 201.128906 135.039062 200.886719 C 135.039062 197.582031 135.671875 195.976562 137.472656 191.699219 C 137.957031 190.53125 138.492188 189.21875 139.171875 187.566406 C 141.652344 181.394531 153.949219 175.464844 156.667969 174.25 L 143.0625 142.851562 C 142.964844 142.65625 143.011719 142.414062 143.15625 142.269531 C 143.304688 142.121094 143.5 142.074219 143.742188 142.074219 C 145.199219 142.464844 179.171875 151.84375 186.269531 157.871094 C 193.414062 163.945312 196.867188 181.445312 196.960938 182.171875 C 197.011719 182.320312 196.960938 182.511719 196.867188 182.609375 C 196.769531 182.757812 196.621094 182.804688 196.429688 182.804688 L 179.367188 182.804688 C 179.222656 183.535156 178.785156 185.089844 177.957031 186.402344 C 173.777344 193.15625 164.640625 194.957031 164.253906 195.003906 L 154.675781 197.726562 C 154.289062 198.550781 152.878906 201.273438 151.613281 202.585938 C 148.210938 206.183594 144.179688 206.476562 140.339844 206.476562 Z M 136.160156 200.789062 C 136.160156 200.789062 137.277344 205.40625 140.339844 205.40625 C 144.082031 205.40625 147.726562 205.113281 150.789062 201.90625 C 152.101562 200.546875 153.753906 197.144531 153.753906 197.144531 C 153.800781 196.996094 153.949219 196.898438 154.09375 196.851562 L 163.960938 194.03125 C 164.105469 193.984375 173.097656 192.234375 176.988281 185.914062 C 177.957031 184.3125 178.296875 182.269531 178.296875 182.269531 C 178.347656 181.976562 178.589844 181.785156 178.832031 181.785156 L 195.648438 181.785156 C 194.96875 178.527344 191.519531 163.945312 185.445312 158.792969 C 179.222656 153.496094 150.546875 145.234375 144.46875 143.53125 L 157.835938 174.394531 C 157.933594 174.6875 157.835938 175.027344 157.542969 175.125 C 157.398438 175.175781 142.671875 181.734375 140.144531 188.054688 C 139.511719 189.65625 138.929688 191.019531 138.441406 192.183594 C 136.742188 196.367188 136.160156 197.824219 136.160156 200.789062 Z M 136.160156 200.789062 "/></g><path style=" stroke:none;fill-rule:nonzero;fill:#fdfdfd;fill-opacity:1;" d="M 130.230469 183.824219 L 121.1875 176.875 L 112.878906 152.621094 C 112.878906 152.621094 105.296875 161.417969 103.058594 171.964844 C 100.773438 182.511719 104.273438 187.761719 108.792969 189.125 C 113.265625 190.484375 117.542969 190.09375 117.542969 190.09375 C 117.542969 190.09375 121.917969 196.121094 127.070312 194.128906 C 131.445312 192.429688 132.949219 187.472656 130.230469 183.824219 Z M 130.230469 183.824219 "/><path style=" stroke:none;fill-rule:nonzero;fill:#23326a;fill-opacity:1;" d="M 124.882812 195.101562 C 121.089844 195.101562 118.078125 191.652344 117.300781 190.679688 C 116.230469 190.726562 112.539062 190.871094 108.601562 189.65625 C 106.414062 188.976562 99.511719 185.722656 102.476562 171.820312 C 104.710938 161.320312 112.34375 152.378906 112.441406 152.28125 C 112.585938 152.136719 112.78125 152.039062 112.976562 152.085938 C 113.167969 152.136719 113.316406 152.28125 113.410156 152.476562 L 121.675781 176.535156 L 130.570312 183.386719 C 130.617188 183.4375 130.667969 183.4375 130.667969 183.484375 C 132.027344 185.332031 132.464844 187.617188 131.832031 189.753906 C 131.203125 191.992188 129.5 193.742188 127.214844 194.664062 C 126.4375 194.957031 125.660156 195.101562 124.882812 195.101562 Z M 117.542969 189.511719 C 117.738281 189.511719 117.882812 189.609375 117.980469 189.753906 C 118.03125 189.804688 122.160156 195.394531 126.828125 193.59375 C 128.769531 192.816406 130.230469 191.308594 130.765625 189.414062 C 131.25 187.664062 130.910156 185.769531 129.792969 184.214844 L 120.847656 177.3125 C 120.75 177.265625 120.703125 177.167969 120.652344 177.070312 L 112.632812 153.738281 C 110.789062 156.074219 105.34375 163.558594 103.546875 172.0625 C 101.699219 180.8125 103.691406 186.984375 108.941406 188.589844 C 113.265625 189.902344 117.445312 189.511719 117.496094 189.511719 C 117.496094 189.511719 117.542969 189.511719 117.542969 189.511719 Z M 117.542969 189.511719 "/><path style=" stroke:none;fill-rule:nonzero;fill:#fdfdfd;fill-opacity:1;" d="M 118.710938 126.765625 C 114.238281 129.679688 108.40625 138.722656 106.898438 148.832031 C 105.539062 157.96875 106.558594 162.730469 109.476562 167.933594 C 112.976562 174.203125 121.871094 178.769531 132.417969 178.769531 C 142.964844 178.769531 146.609375 179.0625 154.53125 177.117188 C 162.453125 175.175781 173.632812 167.105469 166.683594 151.503906 C 166.683594 151.503906 165.515625 134.394531 155.84375 126.8125 C 151.175781 123.703125 148.117188 121.273438 139.125 120.929688 C 130.132812 120.542969 122.257812 124.429688 118.710938 126.765625 Z M 118.710938 126.765625 "/><path style=" stroke:none;fill-rule:nonzero;fill:#23326a;fill-opacity:1;" d="M 138.539062 179.304688 C 137.714844 179.304688 136.839844 179.304688 135.867188 179.304688 L 132.417969 179.304688 C 122.113281 179.304688 112.683594 174.832031 108.988281 168.175781 C 106.265625 163.265625 104.953125 158.503906 106.363281 148.734375 C 107.824219 138.671875 113.65625 129.4375 118.417969 126.277344 C 123.085938 123.167969 131.007812 119.960938 139.125 120.300781 C 147.726562 120.640625 151.03125 122.875 155.261719 125.695312 L 156.136719 126.277344 C 165.660156 133.761719 167.070312 149.753906 167.21875 151.308594 C 169.9375 157.433594 170.132812 162.925781 167.847656 167.640625 C 165.078125 173.277344 159.246094 176.484375 154.675781 177.605469 C 148.457031 179.160156 144.859375 179.304688 138.539062 179.304688 Z M 118.710938 126.765625 L 119 127.25 C 114.433594 130.261719 108.84375 139.207031 107.433594 148.925781 C 106.023438 158.453125 107.238281 162.828125 109.914062 167.6875 C 113.460938 174.007812 122.453125 178.234375 132.367188 178.234375 L 135.820312 178.234375 C 143.742188 178.234375 147.433594 178.285156 154.335938 176.582031 C 158.664062 175.515625 164.203125 172.5 166.78125 167.203125 C 168.917969 162.78125 168.722656 157.578125 166.097656 151.746094 C 166.050781 151.699219 166.050781 151.601562 166.050781 151.550781 C 166.050781 151.40625 164.785156 134.589844 155.453125 127.25 L 154.628906 126.714844 C 150.398438 123.894531 147.335938 121.855469 139.074219 121.515625 C 128.964844 120.980469 120.605469 126.179688 119.050781 127.203125 Z M 118.710938 126.765625 "/><path style=" stroke:none;fill-rule:nonzero;fill:#fdfdfd;fill-opacity:1;" d="M 130.230469 168.660156 C 130.230469 168.660156 133.195312 170.023438 134.601562 166.8125 Z M 130.230469 168.660156 "/><path style=" stroke:none;fill-rule:nonzero;fill:#23326a;fill-opacity:1;" d="M 131.6875 169.488281 C 130.765625 169.488281 130.082031 169.148438 130.035156 169.148438 C 129.742188 169 129.644531 168.710938 129.742188 168.417969 C 129.890625 168.125 130.179688 167.980469 130.472656 168.125 C 130.472656 168.125 131.542969 168.613281 132.5625 168.222656 C 133.195312 167.980469 133.730469 167.445312 134.117188 166.570312 C 134.214844 166.277344 134.554688 166.132812 134.847656 166.277344 C 135.136719 166.425781 135.234375 166.714844 135.136719 167.007812 C 134.652344 168.125 133.921875 168.855469 132.949219 169.246094 C 132.511719 169.4375 132.074219 169.488281 131.6875 169.488281 Z M 131.6875 169.488281 "/><path style=" stroke:none;fill-rule:nonzero;fill:#fdfdfd;fill-opacity:1;" d="M 137.8125 174.152344 C 137.8125 174.152344 134.410156 173.863281 132.949219 168.660156 Z M 137.8125 174.152344 "/><path style=" stroke:none;fill-rule:nonzero;fill:#23326a;fill-opacity:1;" d="M 137.8125 174.738281 C 137.761719 174.738281 137.761719 174.738281 137.8125 174.738281 C 137.617188 174.738281 133.972656 174.347656 132.417969 168.855469 C 132.320312 168.5625 132.511719 168.273438 132.804688 168.175781 C 133.144531 168.125 133.386719 168.273438 133.484375 168.5625 C 134.796875 173.277344 137.714844 173.617188 137.859375 173.667969 C 138.152344 173.714844 138.394531 173.957031 138.347656 174.25 C 138.347656 174.492188 138.101562 174.738281 137.8125 174.738281 Z M 137.8125 174.738281 "/><path style=" stroke:none;fill-rule:nonzero;fill:#23326a;fill-opacity:1;" d="M 138.25 152.621094 C 138.25 152.976562 138.179688 153.316406 138.046875 153.644531 C 137.910156 153.972656 137.714844 154.261719 137.464844 154.511719 C 137.214844 154.761719 136.925781 154.957031 136.597656 155.089844 C 136.269531 155.226562 135.929688 155.292969 135.574219 155.292969 C 135.222656 155.292969 134.878906 155.226562 134.550781 155.089844 C 134.226562 154.957031 133.9375 154.761719 133.683594 154.511719 C 133.433594 154.261719 133.242188 153.972656 133.105469 153.644531 C 132.96875 153.316406 132.902344 152.976562 132.902344 152.621094 C 132.902344 152.265625 132.96875 151.925781 133.105469 151.597656 C 133.242188 151.269531 133.433594 150.980469 133.683594 150.730469 C 133.9375 150.480469 134.226562 150.289062 134.550781 150.152344 C 134.878906 150.015625 135.222656 149.949219 135.574219 149.949219 C 135.929688 149.949219 136.269531 150.015625 136.597656 150.152344 C 136.925781 150.289062 137.214844 150.480469 137.464844 150.730469 C 137.714844 150.980469 137.910156 151.269531 138.046875 151.597656 C 138.179688 151.925781 138.25 152.265625 138.25 152.621094 Z M 138.25 152.621094 "/><path style=" stroke:none;fill-rule:nonzero;fill:#23326a;fill-opacity:1;" d="M 165.515625 152.621094 C 165.515625 152.976562 165.449219 153.316406 165.3125 153.644531 C 165.175781 153.972656 164.984375 154.261719 164.734375 154.511719 C 164.480469 154.761719 164.191406 154.957031 163.867188 155.089844 C 163.539062 155.226562 163.195312 155.292969 162.84375 155.292969 C 162.488281 155.292969 162.148438 155.226562 161.820312 155.089844 C 161.492188 154.957031 161.203125 154.761719 160.953125 154.511719 C 160.703125 154.261719 160.507812 153.972656 160.371094 153.644531 C 160.238281 153.316406 160.167969 152.976562 160.167969 152.621094 C 160.167969 152.265625 160.238281 151.925781 160.371094 151.597656 C 160.507812 151.269531 160.703125 150.980469 160.953125 150.730469 C 161.203125 150.480469 161.492188 150.289062 161.820312 150.152344 C 162.148438 150.015625 162.488281 149.949219 162.84375 149.949219 C 163.195312 149.949219 163.539062 150.015625 163.867188 150.152344 C 164.191406 150.289062 164.480469 150.480469 164.734375 150.730469 C 164.984375 150.980469 165.175781 151.269531 165.3125 151.597656 C 165.449219 151.925781 165.515625 152.265625 165.515625 152.621094 Z M 165.515625 152.621094 "/><path style=" stroke:none;fill-rule:nonzero;fill:#fdfdfd;fill-opacity:1;" d="M 125.367188 125.695312 C 125.367188 125.695312 124.738281 122.679688 123.035156 120.398438 C 120.75 117.335938 116.8125 115.050781 112.878906 117.578125 C 107.824219 120.835938 109.328125 125.9375 111.757812 129.292969 C 113.363281 131.480469 115.648438 132.742188 115.648438 132.742188 Z M 125.367188 125.695312 "/><path style=" stroke:none;fill-rule:nonzero;fill:#23326a;fill-opacity:1;" d="M 115.648438 133.324219 C 115.550781 133.324219 115.453125 133.324219 115.355469 133.277344 C 115.257812 133.226562 112.925781 131.917969 111.273438 129.632812 C 109.425781 127.054688 108.601562 124.238281 109.039062 121.953125 C 109.425781 120.007812 110.59375 118.402344 112.539062 117.140625 C 116.863281 114.371094 121.089844 116.996094 123.425781 120.105469 C 125.222656 122.488281 125.855469 125.5 125.855469 125.644531 C 125.902344 125.9375 125.707031 126.230469 125.417969 126.328125 C 125.125 126.375 124.835938 126.179688 124.738281 125.890625 C 124.738281 125.839844 124.105469 122.972656 122.5 120.785156 C 120.410156 117.871094 116.8125 115.683594 113.167969 118.015625 C 111.46875 119.085938 110.445312 120.496094 110.15625 122.097656 C 109.765625 124.140625 110.496094 126.617188 112.195312 128.953125 C 113.703125 131.042969 115.890625 132.257812 115.941406 132.257812 C 116.230469 132.402344 116.328125 132.742188 116.183594 133.035156 C 116.035156 133.226562 115.84375 133.324219 115.648438 133.324219 Z M 115.648438 133.324219 "/><path style=" stroke:none;fill-rule:nonzero;fill:#fdfdfd;fill-opacity:1;" d="M 116.085938 122.242188 C 116.085938 122.242188 118.660156 123.75 119.632812 126.765625 Z M 116.085938 122.242188 "/><path style=" stroke:none;fill-rule:nonzero;fill:#23326a;fill-opacity:1;" d="M 119.585938 127.296875 C 119.339844 127.296875 119.148438 127.152344 119.050781 126.910156 C 118.175781 124.140625 115.792969 122.679688 115.792969 122.679688 C 115.503906 122.535156 115.453125 122.195312 115.597656 121.902344 C 115.746094 121.660156 116.085938 121.5625 116.375 121.710938 C 116.472656 121.757812 119.148438 123.363281 120.167969 126.570312 C 120.265625 126.859375 120.121094 127.152344 119.777344 127.25 C 119.730469 127.296875 119.683594 127.296875 119.585938 127.296875 Z M 119.585938 127.296875 "/><path style=" stroke:none;fill-rule:nonzero;fill:#23326a;fill-opacity:1;" d="M 164.15625 156.851562 C 164.15625 158.988281 161.675781 161.46875 158.613281 161.46875 C 155.550781 161.46875 153.074219 158.988281 153.074219 156.851562 C 153.074219 154.710938 155.550781 153.691406 158.613281 153.691406 C 161.675781 153.738281 164.15625 154.710938 164.15625 156.851562 Z M 164.15625 156.851562 "/><path style=" stroke:none;fill-rule:nonzero;fill:#23326a;fill-opacity:1;" d="M 159.683594 172.9375 C 159.390625 172.9375 159.148438 172.695312 159.148438 172.402344 L 159.148438 161.371094 C 159.148438 161.078125 159.390625 160.835938 159.683594 160.835938 C 159.976562 160.835938 160.21875 161.078125 160.21875 161.371094 L 160.21875 172.355469 C 160.265625 172.695312 159.976562 172.9375 159.683594 172.9375 Z M 159.683594 172.9375 "/><path style=" stroke:none;fill-rule:nonzero;fill:#fdfdfd;fill-opacity:1;" d="M 179.222656 181.832031 C 179.855469 180.761719 180.144531 177.554688 180.386719 176.339844 Z M 179.222656 181.832031 "/><path style=" stroke:none;fill-rule:nonzero;fill:#23326a;fill-opacity:1;" d="M 179.222656 182.367188 C 179.125 182.367188 179.027344 182.320312 178.929688 182.269531 C 178.6875 182.125 178.589844 181.785156 178.734375 181.492188 C 179.171875 180.761719 179.464844 178.769531 179.609375 177.410156 C 179.660156 176.921875 179.757812 176.484375 179.804688 176.195312 C 179.855469 175.902344 180.144531 175.707031 180.4375 175.757812 C 180.730469 175.804688 180.921875 176.097656 180.875 176.390625 C 180.824219 176.679688 180.777344 177.117188 180.679688 177.554688 C 180.4375 179.160156 180.195312 181.152344 179.660156 182.027344 C 179.609375 182.269531 179.417969 182.367188 179.222656 182.367188 Z M 179.222656 182.367188 "/></g></svg>