<svg xmlns="http://www.w3.org/2000/svg" xmlns:xlink="http://www.w3.org/1999/xlink" width="500" zoomAndPan="magnify" viewBox="0 0 375 374.999991" height="500" preserveAspectRatio="xMidYMid meet" version="1.2"><defs><clipPath id="c0825a63b2"><path d="M 157 156 L 192.820312 156 L 192.820312 193.851562 L 157 193.851562 Z M 157 156 "/></clipPath></defs><g id="ce1fc55920"><g style="fill:#fdfdfd;fill-opacity:1;"><g transform="translate(116.979086, 210.823405)"><path style="stroke:none" d="M 19.21875 0.28125 C 17.3125 0.78125 15.351562 0.9375 13.34375 0.75 C 11.34375 0.5625 9.460938 0.0234375 7.703125 -0.859375 C 5.953125 -1.753906 4.5 -2.972656 3.34375 -4.515625 C 2.332031 -5.890625 1.550781 -7.476562 1 -9.28125 C 0.457031 -11.082031 0.140625 -12.984375 0.046875 -14.984375 C -0.046875 -16.992188 0.046875 -18.972656 0.328125 -20.921875 C 0.859375 -24.171875 1.96875 -26.925781 3.65625 -29.1875 C 5.351562 -31.445312 7.46875 -33.015625 10 -33.890625 C 12.539062 -34.765625 15.347656 -34.765625 18.421875 -33.890625 C 20.460938 -33.359375 22.050781 -32.570312 23.1875 -31.53125 C 24.332031 -30.5 25.15625 -29.335938 25.65625 -28.046875 C 26.15625 -26.765625 26.453125 -25.46875 26.546875 -24.15625 C 26.648438 -22.84375 26.671875 -21.632812 26.609375 -20.53125 C 26.578125 -19.59375 26.007812 -19.046875 24.90625 -18.890625 L 18.234375 -18.703125 C 17.734375 -18.640625 17.296875 -18.769531 16.921875 -19.09375 C 16.546875 -19.425781 16.34375 -19.84375 16.3125 -20.34375 C 16.3125 -20.539062 16.285156 -20.878906 16.234375 -21.359375 C 16.191406 -21.847656 16.09375 -22.34375 15.9375 -22.84375 C 15.78125 -23.34375 15.53125 -23.6875 15.1875 -23.875 C 14.175781 -24.3125 13.410156 -24.222656 12.890625 -23.609375 C 12.378906 -23.003906 12.03125 -22.039062 11.84375 -20.71875 C 11.65625 -19.40625 11.5625 -17.90625 11.5625 -16.21875 L 11.5625 -15.984375 C 11.59375 -13.503906 11.96875 -11.679688 12.6875 -10.515625 C 13.40625 -9.359375 14.503906 -9.097656 15.984375 -9.734375 C 16.328125 -9.921875 16.566406 -10.253906 16.703125 -10.734375 C 16.847656 -11.222656 16.941406 -11.71875 16.984375 -12.21875 C 17.035156 -12.71875 17.0625 -13.078125 17.0625 -13.296875 C 17.09375 -13.765625 17.296875 -14.164062 17.671875 -14.5 C 18.046875 -14.832031 18.484375 -14.96875 18.984375 -14.90625 L 25.65625 -14.71875 C 26.789062 -14.550781 27.375 -13.984375 27.40625 -13.015625 C 27.46875 -11.953125 27.441406 -10.769531 27.328125 -9.46875 C 27.222656 -8.164062 26.914062 -6.875 26.40625 -5.59375 C 25.90625 -4.3125 25.09375 -3.148438 23.96875 -2.109375 C 22.84375 -1.078125 21.257812 -0.28125 19.21875 0.28125 Z M 19.21875 0.28125 "/></g></g><g style="fill:#fdfdfd;fill-opacity:1;"><g transform="translate(146.302166, 210.823405)"><path style="stroke:none" d="M 1.640625 0 C 1.203125 0 0.828125 -0.203125 0.515625 -0.609375 C 0.171875 -1.015625 0 -1.4375 0 -1.875 L 0.09375 -31.859375 C 0.09375 -32.460938 0.25 -32.921875 0.5625 -33.234375 C 0.90625 -33.578125 1.296875 -33.75 1.734375 -33.75 L 10.15625 -33.703125 C 10.5625 -33.703125 10.96875 -33.53125 11.375 -33.1875 C 11.71875 -32.78125 11.875 -32.304688 11.84375 -31.765625 L 11.65625 -19.734375 L 15.75 -19.734375 L 15.796875 -31.953125 C 15.796875 -32.523438 15.953125 -32.96875 16.265625 -33.28125 C 16.609375 -33.625 17 -33.796875 17.4375 -33.796875 L 25.84375 -33.75 C 26.257812 -33.75 26.671875 -33.578125 27.078125 -33.234375 C 27.421875 -32.828125 27.578125 -32.367188 27.546875 -31.859375 L 27.03125 -2.390625 C 27.03125 -1.890625 26.875 -1.46875 26.5625 -1.125 C 26.238281 -0.75 25.828125 -0.5625 25.328125 -0.5625 L 17.34375 -0.5625 C 16.90625 -0.5625 16.53125 -0.765625 16.21875 -1.171875 C 15.875 -1.578125 15.703125 -1.984375 15.703125 -2.390625 L 15.75 -11.09375 L 11.46875 -11.09375 L 11.328125 -1.875 C 11.328125 -1.34375 11.171875 -0.90625 10.859375 -0.5625 C 10.546875 -0.1875 10.140625 0 9.640625 0 Z M 1.640625 0 "/></g></g><g style="fill:#fdfdfd;fill-opacity:1;"><g transform="translate(175.719237, 210.823405)"><path style="stroke:none" d="M 9.3125 -0.046875 C 7.019531 -0.796875 5.210938 -1.742188 3.890625 -2.890625 C 2.578125 -4.035156 1.625 -5.578125 1.03125 -7.515625 C 0.4375 -9.460938 0.09375 -11.972656 0 -15.046875 C 0.09375 -18.109375 0.441406 -20.851562 1.046875 -23.28125 C 1.660156 -25.71875 2.625 -27.769531 3.9375 -29.4375 C 5.257812 -31.113281 7.050781 -32.332031 9.3125 -33.09375 C 10.46875 -33.46875 11.78125 -33.675781 13.25 -33.71875 C 14.726562 -33.769531 16.1875 -33.628906 17.625 -33.296875 C 19.0625 -32.972656 20.316406 -32.445312 21.390625 -31.71875 C 22.953125 -30.65625 24.160156 -29.320312 25.015625 -27.71875 C 25.878906 -26.125 26.492188 -24.300781 26.859375 -22.25 C 27.222656 -20.195312 27.453125 -17.921875 27.546875 -15.421875 C 27.546875 -12.566406 27.101562 -9.925781 26.21875 -7.5 C 25.34375 -5.070312 23.734375 -3.054688 21.390625 -1.453125 C 20.316406 -0.734375 19.0625 -0.210938 17.625 0.109375 C 16.1875 0.441406 14.726562 0.582031 13.25 0.53125 C 11.78125 0.488281 10.46875 0.296875 9.3125 -0.046875 Z M 10.8125 -16.125 C 10.84375 -14.175781 11.144531 -12.703125 11.71875 -11.703125 C 12.300781 -10.703125 12.976562 -10.175781 13.75 -10.125 C 14.519531 -10.082031 15.207031 -10.53125 15.8125 -11.46875 C 16.425781 -12.40625 16.765625 -13.832031 16.828125 -15.75 C 16.828125 -18.21875 16.519531 -20.109375 15.90625 -21.421875 C 15.300781 -22.742188 14.597656 -23.441406 13.796875 -23.515625 C 12.992188 -23.597656 12.296875 -23.023438 11.703125 -21.796875 C 11.109375 -20.578125 10.8125 -18.6875 10.8125 -16.125 Z M 10.8125 -16.125 "/></g></g><g style="fill:#fdfdfd;fill-opacity:1;"><g transform="translate(205.136307, 210.823405)"><path style="stroke:none" d="M 1.6875 0 C 1.25 0 0.875 -0.175781 0.5625 -0.53125 C 0.25 -0.894531 0.09375 -1.328125 0.09375 -1.828125 L 0 -31.53125 C 0 -31.96875 0.160156 -32.382812 0.484375 -32.78125 C 0.816406 -33.175781 1.1875 -33.375 1.59375 -33.375 L 13.578125 -33.328125 C 15.898438 -33.328125 17.96875 -33.097656 19.78125 -32.640625 C 21.601562 -32.179688 23.128906 -31.394531 24.359375 -30.28125 C 25.597656 -29.175781 26.472656 -27.632812 26.984375 -25.65625 C 27.203125 -24.90625 27.347656 -23.941406 27.421875 -22.765625 C 27.503906 -21.597656 27.5 -20.367188 27.40625 -19.078125 C 27.3125 -17.796875 27.097656 -16.582031 26.765625 -15.4375 C 26.429688 -14.289062 25.96875 -13.359375 25.375 -12.640625 C 24.3125 -11.328125 23.039062 -10.332031 21.5625 -9.65625 C 20.09375 -8.976562 18.476562 -8.519531 16.71875 -8.28125 C 14.96875 -8.050781 13.125 -7.90625 11.1875 -7.84375 L 11.328125 -1.921875 C 11.390625 -1.390625 11.234375 -0.941406 10.859375 -0.578125 C 10.484375 -0.222656 10.09375 -0.046875 9.6875 -0.046875 Z M 10.859375 -22.5625 L 11 -17.390625 L 13.390625 -17.390625 C 14.492188 -17.390625 15.34375 -17.644531 15.9375 -18.15625 C 16.53125 -18.675781 16.84375 -19.28125 16.875 -19.96875 C 16.90625 -20.664062 16.59375 -21.28125 15.9375 -21.8125 C 15.625 -22.0625 14.992188 -22.238281 14.046875 -22.34375 C 13.109375 -22.457031 12.046875 -22.53125 10.859375 -22.5625 Z M 10.859375 -22.5625 "/></g></g><g style="fill:#fdfdfd;fill-opacity:1;"><g transform="translate(234.506376, 210.823405)"><path style="stroke:none" d="M 1.6875 0 C 1.28125 0 0.90625 -0.171875 0.5625 -0.515625 C 0.25 -0.828125 0.09375 -1.265625 0.09375 -1.828125 L 0 -31.578125 C 0 -32.015625 0.171875 -32.441406 0.515625 -32.859375 C 0.859375 -33.234375 1.21875 -33.421875 1.59375 -33.421875 L 19.78125 -33.375 C 20.320312 -33.375 20.765625 -33.21875 21.109375 -32.90625 C 21.453125 -32.5625 21.625 -32.164062 21.625 -31.71875 L 21.625 -24.71875 C 21.625 -24.34375 21.4375 -23.984375 21.0625 -23.640625 C 20.707031 -23.359375 20.28125 -23.1875 19.78125 -23.125 L 10.90625 -22.703125 L 11 -20.34375 L 16.078125 -20.296875 C 16.484375 -20.296875 16.84375 -20.1875 17.15625 -19.96875 C 17.46875 -19.75 17.609375 -19.453125 17.578125 -19.078125 L 17.34375 -14.046875 C 17.34375 -13.734375 17.1875 -13.46875 16.875 -13.25 C 16.59375 -13.0625 16.25 -12.9375 15.84375 -12.875 L 11.1875 -12.640625 L 11.28125 -10.765625 L 19.78125 -10.390625 C 20.28125 -10.328125 20.707031 -10.15625 21.0625 -9.875 C 21.4375 -9.5625 21.625 -9.195312 21.625 -8.78125 L 21.625 -1.78125 C 21.625 -1.34375 21.453125 -0.953125 21.109375 -0.609375 C 20.765625 -0.296875 20.320312 -0.140625 19.78125 -0.140625 L 7.234375 0 C 7.171875 0 7.09375 0 7 0 C 6.90625 0 6.828125 -0.015625 6.765625 -0.046875 Z M 1.6875 0 "/></g></g><path style=" stroke:none;fill-rule:nonzero;fill:#fdfdfd;fill-opacity:1;" d="M 164.527344 147.140625 C 164.527344 147.140625 164.890625 145.402344 165.875 144.085938 C 167.191406 142.347656 169.433594 141 171.734375 142.460938 C 174.652344 144.339844 173.78125 147.28125 172.378906 149.21875 C 171.453125 150.480469 170.136719 151.207031 170.136719 151.207031 Z M 164.527344 147.140625 "/><path style=" stroke:none;fill-rule:nonzero;fill:#231f20;fill-opacity:1;" d="M 170.136719 151.542969 C 170.191406 151.542969 170.25 151.542969 170.304688 151.515625 C 170.359375 151.488281 171.707031 150.730469 172.660156 149.414062 C 173.726562 147.925781 174.203125 146.300781 173.949219 144.984375 C 173.726562 143.863281 173.050781 142.9375 171.929688 142.207031 C 169.433594 140.609375 166.996094 142.121094 165.648438 143.917969 C 164.613281 145.292969 164.246094 147.03125 164.246094 147.113281 C 164.21875 147.28125 164.332031 147.449219 164.5 147.507812 C 164.667969 147.535156 164.835938 147.421875 164.890625 147.253906 C 164.890625 147.226562 165.257812 145.570312 166.183594 144.308594 C 167.417969 142.683594 169.492188 141.394531 171.59375 142.769531 C 172.574219 143.382812 173.164062 144.199219 173.332031 145.125 C 173.558594 146.300781 173.136719 147.730469 172.15625 149.078125 C 171.285156 150.28125 170.023438 150.984375 169.996094 150.984375 C 169.828125 151.066406 169.773438 151.265625 169.855469 151.433594 C 169.910156 151.488281 170.023438 151.542969 170.136719 151.542969 Z M 170.136719 151.542969 "/><path style=" stroke:none;fill-rule:nonzero;fill:#fdfdfd;fill-opacity:1;" d="M 169.882812 145.152344 C 169.882812 145.152344 168.398438 146.019531 167.835938 147.757812 Z M 169.882812 145.152344 "/><path style=" stroke:none;fill-rule:nonzero;fill:#231f20;fill-opacity:1;" d="M 167.835938 148.066406 C 167.976562 148.066406 168.089844 147.984375 168.144531 147.84375 C 168.648438 146.246094 170.023438 145.402344 170.023438 145.402344 C 170.191406 145.320312 170.21875 145.125 170.136719 144.953125 C 170.050781 144.816406 169.855469 144.757812 169.6875 144.84375 C 169.632812 144.871094 168.089844 145.796875 167.5 147.648438 C 167.445312 147.816406 167.527344 147.984375 167.722656 148.039062 C 167.78125 148.066406 167.808594 148.066406 167.835938 148.066406 Z M 167.835938 148.066406 "/><g clip-rule="nonzero" clip-path="url(#c0825a63b2)"><path style=" stroke:none;fill-rule:nonzero;fill:#fdfdfd;fill-opacity:1;" d="M 192.484375 179.808594 C 192.484375 179.808594 190.492188 169.460938 186.398438 165.957031 C 182.304688 162.480469 162.003906 156.898438 162.003906 156.898438 L 169.96875 175.324219 C 169.96875 175.324219 161.273438 179.136719 159.761719 182.976562 C 157.996094 187.378906 157.40625 188.222656 157.40625 190.464844 C 157.40625 190.464844 158.078125 193.4375 160.152344 193.4375 C 162.230469 193.4375 164.5 193.296875 166.433594 191.335938 C 167.246094 190.492188 168.203125 188.503906 168.203125 188.503906 L 173.894531 186.875 C 173.894531 186.875 179.25 185.867188 181.605469 182.054688 C 182.222656 181.070312 182.417969 179.835938 182.417969 179.835938 Z M 192.484375 179.808594 "/><path style=" stroke:none;fill-rule:nonzero;fill:#231f20;fill-opacity:1;" d="M 160.125 193.746094 C 157.824219 193.746094 157.097656 190.660156 157.070312 190.519531 C 157.070312 188.613281 157.433594 187.6875 158.472656 185.222656 C 158.75 184.546875 159.058594 183.792969 159.453125 182.839844 C 160.882812 179.277344 167.976562 175.855469 169.546875 175.15625 L 161.695312 157.039062 C 161.640625 156.929688 161.667969 156.789062 161.75 156.703125 C 161.835938 156.621094 161.949219 156.59375 162.089844 156.59375 C 162.929688 156.816406 182.53125 162.226562 186.625 165.707031 C 190.746094 169.210938 192.738281 179.304688 192.792969 179.726562 C 192.820312 179.808594 192.792969 179.921875 192.738281 179.976562 C 192.679688 180.0625 192.597656 180.089844 192.484375 180.089844 L 182.640625 180.089844 C 182.558594 180.511719 182.304688 181.40625 181.828125 182.164062 C 179.417969 186.0625 174.144531 187.101562 173.921875 187.128906 L 168.398438 188.699219 C 168.171875 189.175781 167.359375 190.746094 166.632812 191.503906 C 164.667969 193.578125 162.339844 193.746094 160.125 193.746094 Z M 157.714844 190.464844 C 157.714844 190.464844 158.359375 193.128906 160.125 193.128906 C 162.285156 193.128906 164.386719 192.960938 166.152344 191.109375 C 166.910156 190.324219 167.863281 188.363281 167.863281 188.363281 C 167.894531 188.277344 167.976562 188.222656 168.0625 188.195312 L 173.753906 186.566406 C 173.835938 186.539062 179.023438 185.53125 181.269531 181.886719 C 181.828125 180.960938 182.023438 179.78125 182.023438 179.78125 C 182.054688 179.613281 182.195312 179.5 182.332031 179.5 L 192.035156 179.5 C 191.644531 177.621094 189.652344 169.210938 186.148438 166.238281 C 182.558594 163.179688 166.015625 158.414062 162.507812 157.433594 L 170.21875 175.238281 C 170.277344 175.40625 170.21875 175.605469 170.050781 175.660156 C 169.96875 175.6875 161.472656 179.472656 160.011719 183.117188 C 159.648438 184.042969 159.3125 184.828125 159.03125 185.503906 C 158.050781 187.914062 157.714844 188.753906 157.714844 190.464844 Z M 157.714844 190.464844 "/></g><path style=" stroke:none;fill-rule:nonzero;fill:#fdfdfd;fill-opacity:1;" d="M 154.292969 180.679688 L 149.078125 176.667969 L 144.28125 162.675781 C 144.28125 162.675781 139.90625 167.753906 138.617188 173.835938 C 137.300781 179.921875 139.320312 182.949219 141.925781 183.734375 C 144.507812 184.519531 146.972656 184.296875 146.972656 184.296875 C 146.972656 184.296875 149.496094 187.773438 152.46875 186.625 C 154.992188 185.640625 155.863281 182.78125 154.292969 180.679688 Z M 154.292969 180.679688 "/><path style=" stroke:none;fill-rule:nonzero;fill:#231f20;fill-opacity:1;" d="M 151.207031 187.183594 C 149.019531 187.183594 147.28125 185.195312 146.835938 184.632812 C 146.21875 184.660156 144.085938 184.746094 141.816406 184.042969 C 140.554688 183.652344 136.570312 181.773438 138.28125 173.753906 C 139.570312 167.695312 143.972656 162.535156 144.03125 162.480469 C 144.113281 162.394531 144.226562 162.339844 144.339844 162.367188 C 144.449219 162.394531 144.535156 162.480469 144.589844 162.59375 L 149.359375 176.472656 L 154.488281 180.425781 C 154.515625 180.453125 154.546875 180.453125 154.546875 180.484375 C 155.332031 181.546875 155.582031 182.867188 155.21875 184.101562 C 154.855469 185.390625 153.871094 186.398438 152.554688 186.933594 C 152.105469 187.101562 151.65625 187.183594 151.207031 187.183594 Z M 146.972656 183.960938 C 147.085938 183.960938 147.171875 184.015625 147.226562 184.101562 C 147.253906 184.128906 149.636719 187.351562 152.332031 186.316406 C 153.453125 185.867188 154.292969 184.996094 154.601562 183.902344 C 154.882812 182.894531 154.683594 181.800781 154.039062 180.902344 L 148.882812 176.921875 C 148.824219 176.894531 148.796875 176.835938 148.769531 176.78125 L 144.140625 163.320312 C 143.078125 164.667969 139.9375 168.984375 138.898438 173.894531 C 137.832031 178.941406 138.984375 182.5 142.011719 183.425781 C 144.507812 184.183594 146.917969 183.960938 146.945312 183.960938 C 146.945312 183.960938 146.972656 183.960938 146.972656 183.960938 Z M 146.972656 183.960938 "/><path style=" stroke:none;fill-rule:nonzero;fill:#fdfdfd;fill-opacity:1;" d="M 147.648438 147.757812 C 145.066406 149.441406 141.703125 154.65625 140.832031 160.488281 C 140.046875 165.761719 140.636719 168.507812 142.320312 171.507812 C 144.339844 175.128906 149.46875 177.761719 155.554688 177.761719 C 161.640625 177.761719 163.742188 177.929688 168.3125 176.808594 C 172.882812 175.6875 179.332031 171.03125 175.324219 162.03125 C 175.324219 162.03125 174.652344 152.160156 169.070312 147.785156 C 166.378906 145.992188 164.613281 144.589844 159.425781 144.394531 C 154.238281 144.167969 149.695312 146.414062 147.648438 147.757812 Z M 147.648438 147.757812 "/><path style=" stroke:none;fill-rule:nonzero;fill:#231f20;fill-opacity:1;" d="M 159.089844 178.070312 C 158.609375 178.070312 158.105469 178.070312 157.546875 178.070312 L 155.554688 178.070312 C 149.609375 178.070312 144.171875 175.492188 142.039062 171.648438 C 140.46875 168.816406 139.710938 166.070312 140.523438 160.433594 C 141.367188 154.628906 144.730469 149.300781 147.480469 147.480469 C 150.171875 145.683594 154.742188 143.832031 159.425781 144.03125 C 164.386719 144.226562 166.292969 145.515625 168.734375 147.140625 L 169.238281 147.480469 C 174.734375 151.796875 175.546875 161.023438 175.632812 161.917969 C 177.203125 165.453125 177.316406 168.621094 175.996094 171.339844 C 174.398438 174.59375 171.035156 176.445312 168.398438 177.089844 C 164.808594 177.988281 162.734375 178.070312 159.089844 178.070312 Z M 147.648438 147.757812 L 147.816406 148.039062 C 145.179688 149.777344 141.953125 154.9375 141.140625 160.546875 C 140.328125 166.042969 141.03125 168.566406 142.570312 171.371094 C 144.617188 175.015625 149.804688 177.453125 155.527344 177.453125 L 157.519531 177.453125 C 162.089844 177.453125 164.21875 177.480469 168.203125 176.5 C 170.695312 175.882812 173.894531 174.144531 175.378906 171.089844 C 176.613281 168.539062 176.5 165.535156 174.988281 162.171875 C 174.960938 162.144531 174.960938 162.089844 174.960938 162.058594 C 174.960938 161.976562 174.230469 152.273438 168.847656 148.039062 L 168.371094 147.730469 C 165.929688 146.105469 164.164062 144.925781 159.394531 144.730469 C 153.5625 144.421875 148.742188 147.421875 147.84375 148.011719 Z M 147.648438 147.757812 "/><path style=" stroke:none;fill-rule:nonzero;fill:#fdfdfd;fill-opacity:1;" d="M 154.292969 171.929688 C 154.292969 171.929688 156.003906 172.714844 156.816406 170.863281 Z M 154.292969 171.929688 "/><path style=" stroke:none;fill-rule:nonzero;fill:#231f20;fill-opacity:1;" d="M 155.132812 172.40625 C 154.601562 172.40625 154.207031 172.210938 154.179688 172.210938 C 154.011719 172.125 153.957031 171.957031 154.011719 171.789062 C 154.097656 171.621094 154.265625 171.539062 154.433594 171.621094 C 154.433594 171.621094 155.050781 171.902344 155.640625 171.679688 C 156.003906 171.539062 156.3125 171.230469 156.535156 170.722656 C 156.59375 170.554688 156.789062 170.472656 156.957031 170.554688 C 157.125 170.640625 157.179688 170.808594 157.125 170.976562 C 156.84375 171.621094 156.425781 172.042969 155.863281 172.265625 C 155.609375 172.378906 155.359375 172.40625 155.132812 172.40625 Z M 155.132812 172.40625 "/><path style=" stroke:none;fill-rule:nonzero;fill:#fdfdfd;fill-opacity:1;" d="M 158.667969 175.097656 C 158.667969 175.097656 156.703125 174.929688 155.863281 171.929688 Z M 158.667969 175.097656 "/><path style=" stroke:none;fill-rule:nonzero;fill:#231f20;fill-opacity:1;" d="M 158.667969 175.433594 C 158.640625 175.433594 158.640625 175.433594 158.667969 175.433594 C 158.554688 175.433594 156.453125 175.210938 155.554688 172.042969 C 155.5 171.875 155.609375 171.707031 155.777344 171.648438 C 155.976562 171.621094 156.117188 171.707031 156.171875 171.875 C 156.929688 174.59375 158.609375 174.789062 158.695312 174.820312 C 158.863281 174.847656 159.003906 174.988281 158.976562 175.15625 C 158.976562 175.296875 158.835938 175.433594 158.667969 175.433594 Z M 158.667969 175.433594 "/><path style=" stroke:none;fill-rule:nonzero;fill:#231f20;fill-opacity:1;" d="M 158.917969 162.675781 C 158.917969 162.882812 158.878906 163.078125 158.800781 163.265625 C 158.722656 163.457031 158.613281 163.621094 158.46875 163.765625 C 158.324219 163.910156 158.15625 164.023438 157.96875 164.101562 C 157.777344 164.179688 157.582031 164.21875 157.378906 164.21875 C 157.171875 164.21875 156.976562 164.179688 156.789062 164.101562 C 156.597656 164.023438 156.429688 163.910156 156.285156 163.765625 C 156.140625 163.621094 156.03125 163.457031 155.953125 163.265625 C 155.875 163.078125 155.835938 162.882812 155.835938 162.675781 C 155.835938 162.472656 155.875 162.277344 155.953125 162.085938 C 156.03125 161.898438 156.140625 161.730469 156.285156 161.585938 C 156.429688 161.441406 156.597656 161.332031 156.789062 161.25 C 156.976562 161.171875 157.171875 161.132812 157.378906 161.132812 C 157.582031 161.132812 157.777344 161.171875 157.96875 161.25 C 158.15625 161.332031 158.324219 161.441406 158.46875 161.585938 C 158.613281 161.730469 158.722656 161.898438 158.800781 162.085938 C 158.878906 162.277344 158.917969 162.472656 158.917969 162.675781 Z M 158.917969 162.675781 "/><path style=" stroke:none;fill-rule:nonzero;fill:#231f20;fill-opacity:1;" d="M 174.652344 162.675781 C 174.652344 162.882812 174.613281 163.078125 174.535156 163.265625 C 174.453125 163.457031 174.34375 163.621094 174.199219 163.765625 C 174.054688 163.910156 173.886719 164.023438 173.699219 164.101562 C 173.507812 164.179688 173.3125 164.21875 173.109375 164.21875 C 172.902344 164.21875 172.707031 164.179688 172.519531 164.101562 C 172.328125 164.023438 172.164062 163.910156 172.019531 163.765625 C 171.875 163.621094 171.761719 163.457031 171.683594 163.265625 C 171.605469 163.078125 171.566406 162.882812 171.566406 162.675781 C 171.566406 162.472656 171.605469 162.277344 171.683594 162.085938 C 171.761719 161.898438 171.875 161.730469 172.019531 161.585938 C 172.164062 161.441406 172.328125 161.332031 172.519531 161.25 C 172.707031 161.171875 172.902344 161.132812 173.109375 161.132812 C 173.3125 161.132812 173.507812 161.171875 173.699219 161.25 C 173.886719 161.332031 174.054688 161.441406 174.199219 161.585938 C 174.34375 161.730469 174.453125 161.898438 174.535156 162.085938 C 174.613281 162.277344 174.652344 162.472656 174.652344 162.675781 Z M 174.652344 162.675781 "/><path style=" stroke:none;fill-rule:nonzero;fill:#fdfdfd;fill-opacity:1;" d="M 151.488281 147.140625 C 151.488281 147.140625 151.125 145.402344 150.144531 144.085938 C 148.824219 142.320312 146.554688 141 144.28125 142.460938 C 141.367188 144.339844 142.234375 147.28125 143.636719 149.21875 C 144.5625 150.480469 145.878906 151.207031 145.878906 151.207031 Z M 151.488281 147.140625 "/><path style=" stroke:none;fill-rule:nonzero;fill:#231f20;fill-opacity:1;" d="M 145.878906 151.542969 C 145.824219 151.542969 145.769531 151.542969 145.710938 151.515625 C 145.65625 151.488281 144.308594 150.730469 143.355469 149.414062 C 142.292969 147.925781 141.816406 146.300781 142.066406 144.984375 C 142.292969 143.863281 142.964844 142.9375 144.085938 142.207031 C 146.582031 140.609375 149.019531 142.121094 150.367188 143.917969 C 151.40625 145.292969 151.769531 147.03125 151.769531 147.113281 C 151.796875 147.28125 151.683594 147.449219 151.515625 147.507812 C 151.347656 147.535156 151.179688 147.421875 151.125 147.253906 C 151.125 147.226562 150.761719 145.570312 149.835938 144.308594 C 148.628906 142.628906 146.554688 141.367188 144.449219 142.710938 C 143.46875 143.328125 142.878906 144.140625 142.710938 145.066406 C 142.488281 146.246094 142.910156 147.675781 143.890625 149.019531 C 144.757812 150.226562 146.019531 150.925781 146.050781 150.925781 C 146.21875 151.011719 146.273438 151.207031 146.1875 151.375 C 146.105469 151.488281 145.992188 151.542969 145.878906 151.542969 Z M 145.878906 151.542969 "/><path style=" stroke:none;fill-rule:nonzero;fill:#fdfdfd;fill-opacity:1;" d="M 146.132812 145.152344 C 146.132812 145.152344 147.621094 146.019531 148.179688 147.757812 Z M 146.132812 145.152344 "/><path style=" stroke:none;fill-rule:nonzero;fill:#231f20;fill-opacity:1;" d="M 148.152344 148.066406 C 148.011719 148.066406 147.898438 147.984375 147.84375 147.84375 C 147.339844 146.246094 145.964844 145.402344 145.964844 145.402344 C 145.796875 145.320312 145.769531 145.125 145.851562 144.953125 C 145.9375 144.816406 146.132812 144.757812 146.300781 144.84375 C 146.355469 144.871094 147.898438 145.796875 148.488281 147.648438 C 148.542969 147.816406 148.460938 147.984375 148.265625 148.039062 C 148.234375 148.066406 148.207031 148.066406 148.152344 148.066406 Z M 148.152344 148.066406 "/><path style=" stroke:none;fill-rule:nonzero;fill:#231f20;fill-opacity:1;" d="M 173.867188 165.117188 C 173.867188 166.351562 172.433594 167.78125 170.667969 167.78125 C 168.902344 167.78125 167.472656 166.351562 167.472656 165.117188 C 167.472656 163.882812 168.902344 163.292969 170.667969 163.292969 C 172.433594 163.320312 173.867188 163.882812 173.867188 165.117188 Z M 173.867188 165.117188 "/><path style=" stroke:none;fill-rule:nonzero;fill:#231f20;fill-opacity:1;" d="M 171.285156 174.398438 C 171.117188 174.398438 170.976562 174.257812 170.976562 174.089844 L 170.976562 167.722656 C 170.976562 167.554688 171.117188 167.414062 171.285156 167.414062 C 171.453125 167.414062 171.59375 167.554688 171.59375 167.722656 L 171.59375 174.0625 C 171.621094 174.257812 171.453125 174.398438 171.285156 174.398438 Z M 171.285156 174.398438 "/><path style=" stroke:none;fill-rule:nonzero;fill:#fdfdfd;fill-opacity:1;" d="M 182.558594 179.53125 C 182.921875 178.914062 183.089844 177.0625 183.230469 176.359375 Z M 182.558594 179.53125 "/><path style=" stroke:none;fill-rule:nonzero;fill:#231f20;fill-opacity:1;" d="M 182.558594 179.835938 C 182.503906 179.835938 182.445312 179.808594 182.390625 179.78125 C 182.25 179.699219 182.195312 179.5 182.277344 179.332031 C 182.53125 178.914062 182.699219 177.761719 182.78125 176.976562 C 182.808594 176.695312 182.867188 176.445312 182.894531 176.277344 C 182.921875 176.109375 183.089844 175.996094 183.257812 176.023438 C 183.425781 176.050781 183.539062 176.21875 183.511719 176.390625 C 183.484375 176.558594 183.457031 176.808594 183.398438 177.0625 C 183.257812 177.988281 183.117188 179.136719 182.808594 179.640625 C 182.78125 179.78125 182.671875 179.835938 182.558594 179.835938 Z M 182.558594 179.835938 "/><g style="fill:#fdfdfd;fill-opacity:1;"><g transform="translate(104.751853, 229.770806)"><path style="stroke:none" d="M 5.078125 0.140625 C 4.222656 0.140625 3.46875 -0.0351562 2.8125 -0.390625 C 2.15625 -0.753906 1.644531 -1.289062 1.28125 -2 C 0.914062 -2.71875 0.734375 -3.597656 0.734375 -4.640625 C 0.734375 -5.679688 0.914062 -6.554688 1.28125 -7.265625 C 1.644531 -7.984375 2.15625 -8.519531 2.8125 -8.875 C 3.46875 -9.226562 4.222656 -9.40625 5.078125 -9.40625 C 5.960938 -9.40625 6.71875 -9.226562 7.34375 -8.875 C 7.96875 -8.53125 8.414062 -8.003906 8.6875 -7.296875 L 7.34375 -6.46875 L 7.1875 -6.484375 C 6.988281 -6.960938 6.71875 -7.304688 6.375 -7.515625 C 6.03125 -7.722656 5.597656 -7.828125 5.078125 -7.828125 C 4.304688 -7.828125 3.703125 -7.570312 3.265625 -7.0625 C 2.835938 -6.550781 2.625 -5.742188 2.625 -4.640625 C 2.625 -3.535156 2.835938 -2.726562 3.265625 -2.21875 C 3.703125 -1.707031 4.304688 -1.453125 5.078125 -1.453125 C 6.273438 -1.453125 7.007812 -2.039062 7.28125 -3.21875 L 7.453125 -3.21875 L 8.796875 -2.5 C 8.546875 -1.625 8.113281 -0.960938 7.5 -0.515625 C 6.882812 -0.078125 6.078125 0.140625 5.078125 0.140625 Z M 5.078125 0.140625 "/></g></g><g style="fill:#fdfdfd;fill-opacity:1;"><g transform="translate(117.179644, 229.770806)"><path style="stroke:none" d="M 7.203125 -5.796875 L 7.203125 -9.28125 L 9.03125 -9.28125 L 9.03125 0 L 7.203125 0 L 7.203125 -4.234375 L 3.046875 -4.234375 L 3.046875 0 L 1.203125 0 L 1.203125 -9.28125 L 3.046875 -9.28125 L 3.046875 -5.796875 Z M 7.203125 -5.796875 "/></g></g><g style="fill:#fdfdfd;fill-opacity:1;"><g transform="translate(130.743329, 229.770806)"><path style="stroke:none" d="M 5.0625 0.140625 C 4.207031 0.140625 3.453125 -0.03125 2.796875 -0.375 C 2.148438 -0.726562 1.644531 -1.257812 1.28125 -1.96875 C 0.914062 -2.6875 0.734375 -3.578125 0.734375 -4.640625 C 0.734375 -5.703125 0.914062 -6.585938 1.28125 -7.296875 C 1.644531 -8.015625 2.148438 -8.546875 2.796875 -8.890625 C 3.453125 -9.234375 4.207031 -9.40625 5.0625 -9.40625 C 5.90625 -9.40625 6.648438 -9.234375 7.296875 -8.890625 C 7.953125 -8.546875 8.460938 -8.015625 8.828125 -7.296875 C 9.191406 -6.585938 9.375 -5.703125 9.375 -4.640625 C 9.375 -3.578125 9.191406 -2.6875 8.828125 -1.96875 C 8.460938 -1.257812 7.953125 -0.726562 7.296875 -0.375 C 6.648438 -0.03125 5.90625 0.140625 5.0625 0.140625 Z M 5.0625 -1.453125 C 5.84375 -1.453125 6.441406 -1.707031 6.859375 -2.21875 C 7.273438 -2.726562 7.484375 -3.535156 7.484375 -4.640625 C 7.484375 -5.742188 7.273438 -6.550781 6.859375 -7.0625 C 6.441406 -7.570312 5.84375 -7.828125 5.0625 -7.828125 C 4.269531 -7.828125 3.664062 -7.570312 3.25 -7.0625 C 2.832031 -6.550781 2.625 -5.742188 2.625 -4.640625 C 2.625 -3.535156 2.832031 -2.726562 3.25 -2.21875 C 3.664062 -1.707031 4.269531 -1.453125 5.0625 -1.453125 Z M 5.0625 -1.453125 "/></g></g><g style="fill:#fdfdfd;fill-opacity:1;"><g transform="translate(144.1801, 229.770806)"><path style="stroke:none" d="M 1.203125 0 L 1.203125 -9.28125 L 4.9375 -9.28125 C 5.894531 -9.28125 6.617188 -9.054688 7.109375 -8.609375 C 7.597656 -8.171875 7.84375 -7.5625 7.84375 -6.78125 C 7.84375 -6.21875 7.695312 -5.753906 7.40625 -5.390625 C 7.125 -5.035156 6.695312 -4.765625 6.125 -4.578125 L 6.125 -4.4375 C 6.414062 -4.3125 6.648438 -4.125 6.828125 -3.875 C 7.015625 -3.625 7.1875 -3.253906 7.34375 -2.765625 L 8.28125 0 L 6.390625 0 L 5.484375 -2.78125 C 5.390625 -3.050781 5.285156 -3.265625 5.171875 -3.421875 C 5.054688 -3.578125 4.90625 -3.6875 4.71875 -3.75 C 4.539062 -3.820312 4.3125 -3.859375 4.03125 -3.859375 L 3.046875 -3.859375 L 3.046875 0 Z M 4.703125 -5.3125 C 5.597656 -5.3125 6.046875 -5.726562 6.046875 -6.5625 C 6.046875 -7.40625 5.597656 -7.828125 4.703125 -7.828125 L 3.046875 -7.828125 L 3.046875 -5.3125 Z M 4.703125 -5.3125 "/></g></g><g style="fill:#fdfdfd;fill-opacity:1;"><g transform="translate(156.182731, 229.770806)"><path style="stroke:none" d="M 3.046875 -4.078125 L 3.046875 -1.53125 L 7.46875 -1.53125 L 7.46875 0 L 1.203125 0 L 1.203125 -9.28125 L 7.375 -9.28125 L 7.375 -7.75 L 3.046875 -7.75 L 3.046875 -5.578125 L 6.828125 -5.578125 L 6.828125 -4.078125 Z M 3.046875 -4.078125 "/></g></g><g style="fill:#fdfdfd;fill-opacity:1;"><g transform="translate(167.48733, 229.770806)"><path style="stroke:none" d="M 4.109375 0.140625 C 3.472656 0.140625 2.898438 0.0625 2.390625 -0.09375 C 1.890625 -0.257812 1.472656 -0.472656 1.140625 -0.734375 C 0.804688 -0.992188 0.550781 -1.273438 0.375 -1.578125 L 1.390625 -2.8125 L 1.546875 -2.8125 C 1.828125 -2.394531 2.179688 -2.0625 2.609375 -1.8125 C 3.035156 -1.570312 3.535156 -1.453125 4.109375 -1.453125 C 4.597656 -1.453125 4.96875 -1.554688 5.21875 -1.765625 C 5.46875 -1.972656 5.59375 -2.257812 5.59375 -2.625 C 5.59375 -2.84375 5.550781 -3.023438 5.46875 -3.171875 C 5.394531 -3.316406 5.265625 -3.441406 5.078125 -3.546875 C 4.890625 -3.660156 4.640625 -3.753906 4.328125 -3.828125 L 3.125 -4.09375 C 2.289062 -4.289062 1.671875 -4.609375 1.265625 -5.046875 C 0.859375 -5.492188 0.65625 -6.066406 0.65625 -6.765625 C 0.65625 -7.296875 0.785156 -7.757812 1.046875 -8.15625 C 1.304688 -8.550781 1.6875 -8.859375 2.1875 -9.078125 C 2.695312 -9.296875 3.300781 -9.40625 4 -9.40625 C 4.707031 -9.40625 5.316406 -9.3125 5.828125 -9.125 C 6.335938 -8.9375 6.769531 -8.648438 7.125 -8.265625 L 6.21875 -7.015625 L 6.0625 -7.015625 C 5.789062 -7.296875 5.484375 -7.503906 5.140625 -7.640625 C 4.804688 -7.773438 4.425781 -7.84375 4 -7.84375 C 3.488281 -7.84375 3.101562 -7.753906 2.84375 -7.578125 C 2.582031 -7.398438 2.453125 -7.15625 2.453125 -6.84375 C 2.453125 -6.550781 2.539062 -6.316406 2.71875 -6.140625 C 2.90625 -5.972656 3.226562 -5.835938 3.6875 -5.734375 L 4.90625 -5.484375 C 5.800781 -5.296875 6.453125 -4.972656 6.859375 -4.515625 C 7.265625 -4.054688 7.46875 -3.460938 7.46875 -2.734375 C 7.46875 -2.148438 7.34375 -1.644531 7.09375 -1.21875 C 6.84375 -0.789062 6.46875 -0.457031 5.96875 -0.21875 C 5.46875 0.0195312 4.847656 0.140625 4.109375 0.140625 Z M 4.109375 0.140625 "/></g></g><g style="fill:#fdfdfd;fill-opacity:1;"><g transform="translate(178.785578, 229.770806)"><path style="stroke:none" d="M 1.796875 0.0625 C 1.566406 0.0625 1.363281 0.015625 1.1875 -0.078125 C 1.019531 -0.171875 0.890625 -0.296875 0.796875 -0.453125 C 0.710938 -0.617188 0.671875 -0.800781 0.671875 -1 C 0.671875 -1.207031 0.710938 -1.390625 0.796875 -1.546875 C 0.890625 -1.710938 1.019531 -1.835938 1.1875 -1.921875 C 1.363281 -2.015625 1.566406 -2.0625 1.796875 -2.0625 C 2.023438 -2.0625 2.222656 -2.015625 2.390625 -1.921875 C 2.554688 -1.835938 2.6875 -1.710938 2.78125 -1.546875 C 2.875 -1.390625 2.921875 -1.210938 2.921875 -1.015625 C 2.921875 -0.703125 2.816406 -0.441406 2.609375 -0.234375 C 2.398438 -0.0351562 2.128906 0.0625 1.796875 0.0625 Z M 1.796875 0.0625 "/></g></g><g style="fill:#fdfdfd;fill-opacity:1;"><g transform="translate(185.698919, 229.770806)"><path style="stroke:none" d="M 1.203125 0 L 1.203125 -9.28125 L 5.171875 -9.28125 C 5.742188 -9.28125 6.226562 -9.1875 6.625 -9 C 7.019531 -8.820312 7.316406 -8.566406 7.515625 -8.234375 C 7.722656 -7.910156 7.828125 -7.519531 7.828125 -7.0625 C 7.828125 -6.65625 7.722656 -6.296875 7.515625 -5.984375 C 7.316406 -5.671875 7.035156 -5.414062 6.671875 -5.21875 L 6.671875 -5.09375 C 7.253906 -4.9375 7.703125 -4.65625 8.015625 -4.25 C 8.335938 -3.851562 8.5 -3.363281 8.5 -2.78125 C 8.5 -1.894531 8.226562 -1.207031 7.6875 -0.71875 C 7.15625 -0.238281 6.363281 0 5.3125 0 Z M 4.78125 -5.578125 C 5.632812 -5.578125 6.0625 -5.960938 6.0625 -6.734375 C 6.0625 -7.128906 5.957031 -7.421875 5.75 -7.609375 C 5.539062 -7.804688 5.21875 -7.90625 4.78125 -7.90625 L 3.046875 -7.90625 L 3.046875 -5.578125 Z M 5.125 -1.453125 C 6.132812 -1.453125 6.640625 -1.910156 6.640625 -2.828125 C 6.640625 -3.753906 6.132812 -4.21875 5.125 -4.21875 L 3.046875 -4.21875 L 3.046875 -1.453125 Z M 5.125 -1.453125 "/></g></g><g style="fill:#fdfdfd;fill-opacity:1;"><g transform="translate(198.101327, 229.770806)"><path style="stroke:none" d="M 4.921875 0.140625 C 3.640625 0.140625 2.691406 -0.160156 2.078125 -0.765625 C 1.460938 -1.378906 1.15625 -2.285156 1.15625 -3.484375 L 1.15625 -9.28125 L 2.953125 -9.28125 L 2.953125 -3.484375 C 2.953125 -2.804688 3.113281 -2.296875 3.4375 -1.953125 C 3.757812 -1.617188 4.253906 -1.453125 4.921875 -1.453125 C 6.234375 -1.453125 6.890625 -2.128906 6.890625 -3.484375 L 6.890625 -9.28125 L 8.6875 -9.28125 L 8.6875 -3.484375 C 8.6875 -2.285156 8.378906 -1.378906 7.765625 -0.765625 C 7.148438 -0.160156 6.203125 0.140625 4.921875 0.140625 Z M 4.921875 0.140625 "/></g></g><g style="fill:#fdfdfd;fill-opacity:1;"><g transform="translate(211.265224, 229.770806)"><path style="stroke:none" d="M 7.4375 -9.28125 L 7.4375 -7.734375 L 4.765625 -7.734375 L 4.765625 0 L 2.9375 0 L 2.9375 -7.734375 L 0.25 -7.734375 L 0.25 -9.28125 Z M 7.4375 -9.28125 "/></g></g><g style="fill:#fdfdfd;fill-opacity:1;"><g transform="translate(222.284259, 229.770806)"><path style="stroke:none" d=""/></g></g><g style="fill:#fdfdfd;fill-opacity:1;"><g transform="translate(228.677249, 229.770806)"><path style="stroke:none" d="M 7.09375 -9.28125 L 7.09375 -7.75 L 3.046875 -7.75 L 3.046875 -5.28125 L 6.71875 -5.28125 L 6.71875 -3.765625 L 3.046875 -3.765625 L 3.046875 0 L 1.203125 0 L 1.203125 -9.28125 Z M 7.09375 -9.28125 "/></g></g><g style="fill:#fdfdfd;fill-opacity:1;"><g transform="translate(239.505911, 229.770806)"><path style="stroke:none" d="M 4.921875 0.140625 C 3.640625 0.140625 2.691406 -0.160156 2.078125 -0.765625 C 1.460938 -1.378906 1.15625 -2.285156 1.15625 -3.484375 L 1.15625 -9.28125 L 2.953125 -9.28125 L 2.953125 -3.484375 C 2.953125 -2.804688 3.113281 -2.296875 3.4375 -1.953125 C 3.757812 -1.617188 4.253906 -1.453125 4.921875 -1.453125 C 6.234375 -1.453125 6.890625 -2.128906 6.890625 -3.484375 L 6.890625 -9.28125 L 8.6875 -9.28125 L 8.6875 -3.484375 C 8.6875 -2.285156 8.378906 -1.378906 7.765625 -0.765625 C 7.148438 -0.160156 6.203125 0.140625 4.921875 0.140625 Z M 4.921875 0.140625 "/></g></g><g style="fill:#fdfdfd;fill-opacity:1;"><g transform="translate(252.669809, 229.770806)"><path style="stroke:none" d="M 2.984375 0 L 1.203125 0 L 1.203125 -9.28125 L 3.3125 -9.28125 L 7.03125 -3.296875 L 7.203125 -3.328125 L 7.203125 -9.28125 L 8.96875 -9.28125 L 8.96875 0 L 7.078125 0 L 3.140625 -6.390625 L 2.984375 -6.359375 Z M 2.984375 0 "/></g></g><g style="fill:#fdfdfd;fill-opacity:1;"><g transform="translate(266.170037, 229.770806)"><path style="stroke:none" d="M 2.828125 -3.078125 L 1.25 -3.078125 L 1.125 -9.28125 L 2.953125 -9.28125 Z M 2.03125 0.0625 C 1.8125 0.0625 1.617188 0.0195312 1.453125 -0.0625 C 1.285156 -0.15625 1.15625 -0.28125 1.0625 -0.4375 C 0.976562 -0.59375 0.9375 -0.769531 0.9375 -0.96875 C 0.9375 -1.164062 0.976562 -1.34375 1.0625 -1.5 C 1.15625 -1.65625 1.285156 -1.773438 1.453125 -1.859375 C 1.617188 -1.953125 1.8125 -2 2.03125 -2 C 2.363281 -2 2.628906 -1.898438 2.828125 -1.703125 C 3.035156 -1.515625 3.140625 -1.269531 3.140625 -0.96875 C 3.140625 -0.664062 3.035156 -0.414062 2.828125 -0.21875 C 2.628906 -0.03125 2.363281 0.0625 2.03125 0.0625 Z M 2.03125 0.0625 "/></g></g></g></svg>