<?xml version="1.0" encoding="UTF-8"?>
<svg width="40" height="40" viewBox="0 0 40 40" fill="none" xmlns="http://www.w3.org/2000/svg">
  <path d="M20 5C11.7157 5 5 11.7157 5 20C5 28.2843 11.7157 35 20 35C28.2843 35 35 28.2843 35 20C35 11.7157 28.2843 5 20 5Z" fill="#89d4f2"/>
  <path d="M24 15C24 16.6569 22.6569 18 21 18C19.3431 18 18 16.6569 18 15C18 13.3431 19.3431 12 21 12C22.6569 12 24 13.3431 24 15Z" fill="white"/>
  <path d="M28 25C28 25.5523 27.5523 26 27 26H13C12.4477 26 12 25.5523 12 25V23C12 22.4477 12.4477 22 13 22H27C27.5523 22 28 22.4477 28 23V25Z" fill="white"/>
</svg> 